<?xml version="1.0" encoding="utf-8"?>
<svg version="1.1" id="layer_1" xmlns="http://www.w3.org/2000/svg" xmlns:xlink="http://www.w3.org/1999/xlink" x="0px" y="0px"
	 viewBox="0 0 200 200" style="enable-background:new 0 0 200 200;" xml:space="preserve">
<style type="text/css">
	.st0{fill:#596B7C;}
</style>
<path class="st0" d="M19,166.7v19h166.7v-19H19z"/>
<path class="st0" d="M58.3,78.3c33-19.1,75.3-7.8,94.3,25.3c13.8,23.9,11.7,52.7-3.1,73.9h-18.7c17.7-17.1,22.2-44.6,9.4-66.8
	c-15.1-26.2-48.6-35.2-74.8-20c-26.2,15.1-35.2,48.6-20,74.8c2.6,4.5,5.8,8.6,9.4,12H36.1c-1.1-1.6-2.1-3.2-3.1-4.9
	C13.9,139.6,25.3,97.4,58.3,78.3L58.3,78.3z"/>
<path class="st0" d="M89.4,167.6l19.5-11.2c5.3-3.1,7.7-5.3,9.1-8.5c1.6-3.9,1-8.3-1.9-13.3c-2-3.5-4.4-6.1-6.8-7.3l-0.6-0.3
	c-0.8-0.4-1.7-0.6-4-1c1.5-3.8,1-7.4-1.6-11.9c-2.5-4.3-5.8-7-9.6-7.8c-3.7-0.7-7,0.2-12.8,3.5l-18.6,10.7L89.4,167.6L89.4,167.6z
	 M83.3,133.8l-6.4-11.1l7.8-4.5c4-2.3,6.5-1.7,8.8,2.3c2.3,4,1.6,6.5-2.4,8.8L83.3,133.8z M94.8,153.7L88,141.8l8.6-5
	c4-2.3,6.5-1.5,9,2.7c2.4,4.2,1.8,6.9-2.1,9.1C103.5,148.7,94.8,153.7,94.8,153.7z M131.2,62.2l33.3-33.3c2.9-2.7,3-7.2,0.3-10.1
	c-2.7-2.9-7.2-3-10.1-0.3c-0.1,0.1-0.2,0.2-0.3,0.3l-33.3,33.3c-2.9,2.7-3,7.2-0.3,10.1s7.2,3,10.1,0.3
	C131,62.4,131.1,62.3,131.2,62.2z M163.6,83.9l16.1-16.1c2.8-2.8,2.8-7.3,0-10.1c-2.8-2.8-7.3-2.8-10.1,0l0,0l-16.1,16.1
	c-2.8,2.8-2.8,7.3,0,10.1C156.3,86.7,160.8,86.7,163.6,83.9z M47,60.7L72,38c3-2.6,3.2-7.1,0.6-10.1c-2.6-3-7.1-3.2-10.1-0.6
	c0,0-0.1,0.1-0.1,0.1l-25,22.6c-2.9,2.7-3.1,7.2-0.4,10.1C39.7,63,44.1,63.2,47,60.7z"/>
</svg>
